<svg xmlns="http://www.w3.org/2000/svg" viewBox="0 0 64 64">
  <defs>
    <linearGradient id="g" x1="0" y1="0" x2="1" y2="1">
      <stop offset="0%" stop-color="#c040ff"/>
      <stop offset="100%" stop-color="#40ccff"/>
    </linearGradient>
  </defs>
  <rect width="64" height="64" rx="10" fill="#080820"/>
  <!-- Speech bubble circle -->
  <circle cx="32" cy="27" r="22" fill="none" stroke="url(#g)" stroke-width="2.2"/>
  <!-- Bubble tail -->
  <path d="M36 49 L44 57 L30 51 Z" fill="url(#g)"/>
  <!-- Brain left half (purple) -->
  <path d="M32 12 C27 11 20 15 19 21 C17 27 20 32 24 33 C21 38 22 43 27 45 C29 48 31 49 32 49 Z" fill="#b030f0"/>
  <!-- Brain right half (blue) -->
  <path d="M32 12 C37 11 44 15 45 21 C47 27 44 32 40 33 C43 38 42 43 37 45 C35 48 33 49 32 49 Z" fill="#2299ff"/>
  <!-- Brain center divider -->
  <line x1="32" y1="12" x2="32" y2="49" stroke="#080820" stroke-width="1.5"/>
</svg>
